<?xml version="1.0" encoding="UTF-8" standalone="no"?>
<!-- Generator: Adobe Illustrator 23.0.2, SVG Export Plug-In . SVG Version: 6.00 Build 0)  -->

<svg
   xmlns:dc="http://purl.org/dc/elements/1.1/"
   xmlns:cc="http://creativecommons.org/ns#"
   xmlns:rdf="http://www.w3.org/1999/02/22-rdf-syntax-ns#"
   xmlns:svg="http://www.w3.org/2000/svg"
   xmlns="http://www.w3.org/2000/svg"
   xmlns:sodipodi="http://sodipodi.sourceforge.net/DTD/sodipodi-0.dtd"
   xmlns:inkscape="http://www.inkscape.org/namespaces/inkscape"
   height="100"
   width="630"
   version="1.1"
   id="Layer_1"
   x="0px"
   y="0px"
   viewBox="0 0 22.058824 3.5"
   xml:space="preserve"
   sodipodi:docname="PDQ_logo_2019-01 cropped.svg"
   inkscape:version="0.92.4 (5da689c313, 2019-01-14)"><metadata
   id="metadata117"><rdf:RDF><cc:Work
       rdf:about=""><dc:format>image/svg+xml</dc:format><dc:type
         rdf:resource="http://purl.org/dc/dcmitype/StillImage" /><dc:title></dc:title></cc:Work></rdf:RDF></metadata><defs
   id="defs115" /><sodipodi:namedview
   pagecolor="#ffffff"
   bordercolor="#666666"
   borderopacity="1"
   objecttolerance="10"
   gridtolerance="10"
   guidetolerance="10"
   inkscape:pageopacity="0"
   inkscape:pageshadow="2"
   inkscape:window-width="2560"
   inkscape:window-height="1377"
   id="namedview113"
   showgrid="false"
   fit-margin-top="0"
   fit-margin-left="0"
   fit-margin-right="0"
   fit-margin-bottom="0"
   inkscape:zoom="3.022409"
   inkscape:cx="357"
   inkscape:cy="-12.320801"
   inkscape:window-x="1432"
   inkscape:window-y="498"
   inkscape:window-maximized="1"
   inkscape:current-layer="Layer_1" />
<style
   type="text/css"
   id="style78">
	.st0{fill:#010101;}
	.st1{fill:#0092C9;}
	.st2{fill:#F1A61F;}
	.st3{fill:#AFDCC4;}
	.st4{fill:#A0CB3A;}
	.st5{fill:#F4EA0C;}
</style>
<g
   id="g110"
   transform="translate(-1.475588,-1.785)">
	<g
   id="g88">
		<path
   class="st0"
   d="M 16.75,4.45 V 5.01 H 16.18 V 4.45 Z"
   id="path80"
   inkscape:connector-curvature="0"
   style="fill:#010101" />
		<path
   class="st0"
   d="m 17.76,4.58 c 0.08,0 0.15,-0.02 0.21,-0.06 0.06,-0.04 0.12,-0.1 0.17,-0.18 h 0.53 c -0.03,0.11 -0.07,0.2 -0.12,0.29 -0.06,0.09 -0.13,0.16 -0.21,0.23 -0.08,0.06 -0.17,0.11 -0.27,0.15 -0.1,0.03 -0.2,0.05 -0.31,0.05 -0.13,0 -0.25,-0.02 -0.37,-0.07 C 17.28,4.94 17.18,4.87 17.09,4.79 17.01,4.71 16.94,4.61 16.89,4.49 16.84,4.38 16.82,4.25 16.82,4.12 16.82,3.99 16.84,3.87 16.89,3.76 16.94,3.65 17,3.55 17.08,3.47 17.16,3.39 17.26,3.32 17.37,3.27 17.48,3.22 17.6,3.2 17.73,3.2 c 0.11,0 0.22,0.02 0.32,0.05 0.1,0.03 0.19,0.08 0.28,0.15 0.08,0.06 0.15,0.14 0.21,0.23 0.06,0.09 0.1,0.19 0.12,0.3 H 18.13 C 18.1,3.85 18.05,3.79 17.98,3.75 17.91,3.71 17.84,3.69 17.75,3.69 c -0.06,0 -0.12,0.01 -0.17,0.03 -0.05,0.02 -0.09,0.05 -0.13,0.09 -0.04,0.04 -0.06,0.09 -0.09,0.14 -0.02,0.06 -0.03,0.12 -0.03,0.18 0,0.13 0.04,0.23 0.12,0.32 0.09,0.09 0.19,0.13 0.31,0.13 z"
   id="path82"
   inkscape:connector-curvature="0"
   style="fill:#010101" />
		<path
   class="st0"
   d="M 19.56,5.07 C 19.42,5.07 19.3,5.05 19.18,5 19.06,4.95 18.97,4.89 18.88,4.81 18.8,4.73 18.73,4.63 18.68,4.52 18.63,4.41 18.61,4.28 18.61,4.15 c 0,-0.13 0.02,-0.26 0.07,-0.38 0.05,-0.12 0.11,-0.21 0.2,-0.3 0.08,-0.08 0.18,-0.15 0.3,-0.2 0.11,-0.05 0.24,-0.07 0.38,-0.07 0.13,0 0.26,0.02 0.38,0.07 0.11,0.05 0.21,0.11 0.3,0.2 0.08,0.08 0.15,0.18 0.2,0.3 0.04,0.11 0.06,0.23 0.06,0.36 0,0.13 -0.02,0.26 -0.07,0.37 -0.05,0.11 -0.11,0.21 -0.2,0.3 -0.08,0.08 -0.18,0.15 -0.3,0.2 -0.11,0.04 -0.23,0.07 -0.37,0.07 z m 0,-1.38 c -0.06,0 -0.12,0.01 -0.17,0.04 -0.05,0.02 -0.1,0.06 -0.13,0.09 -0.04,0.04 -0.07,0.09 -0.09,0.14 -0.02,0.05 -0.03,0.11 -0.03,0.17 0,0.06 0.01,0.12 0.03,0.18 0.02,0.06 0.05,0.1 0.09,0.14 0.04,0.04 0.08,0.07 0.14,0.09 0.05,0.02 0.11,0.03 0.17,0.03 0.06,0 0.11,-0.01 0.17,-0.03 0.05,-0.02 0.1,-0.05 0.13,-0.09 C 19.91,4.41 19.94,4.36 19.96,4.31 19.98,4.26 19.99,4.2 19.99,4.13 19.99,4.07 19.98,4.01 19.96,3.95 19.94,3.9 19.91,3.85 19.87,3.81 19.83,3.77 19.79,3.74 19.74,3.72 19.67,3.7 19.62,3.69 19.56,3.69 Z"
   id="path84"
   inkscape:connector-curvature="0"
   style="fill:#010101" />
		<path
   class="st0"
   d="M 20.56,5.01 V 3.26 h 0.49 v 0.18 c 0.1,-0.16 0.26,-0.24 0.48,-0.24 0.22,0 0.39,0.1 0.51,0.31 0.13,-0.21 0.31,-0.31 0.55,-0.31 0.18,0 0.33,0.06 0.45,0.17 0.04,0.04 0.07,0.08 0.1,0.11 0.03,0.04 0.05,0.08 0.06,0.13 0.01,0.05 0.02,0.11 0.03,0.18 0,0.07 0.01,0.15 0.01,0.26 V 5 H 22.72 V 4.08 c 0,-0.14 -0.02,-0.24 -0.06,-0.3 -0.04,-0.06 -0.11,-0.09 -0.2,-0.09 -0.19,0 -0.29,0.12 -0.29,0.36 V 5 H 21.65 V 4.05 c 0,-0.24 -0.09,-0.36 -0.27,-0.36 -0.2,0 -0.29,0.12 -0.29,0.36 V 5 h -0.53 z"
   id="path86"
   inkscape:connector-curvature="0"
   style="fill:#010101" />
	</g>
	<g
   id="g108">
		<g
   id="g106">
			<rect
   x="6.46"
   y="2.05"
   class="st1"
   width="1.54"
   height="2.8699999"
   id="rect90"
   style="fill:#0092c9" />
			<rect
   x="1.77"
   y="2.05"
   class="st2"
   width="1.61"
   height="2.8699999"
   id="rect92"
   style="fill:#f1a61f" />
			<rect
   x="5.6700001"
   y="2.05"
   class="st3"
   width="0.79000002"
   height="2.8699999"
   id="rect94"
   style="fill:#afdcc4" />
			<rect
   x="4.1300001"
   y="2.05"
   class="st4"
   width="1.54"
   height="2.8699999"
   id="rect96"
   style="fill:#a0cb3a" />
			<rect
   x="3.3399999"
   y="2.05"
   class="st5"
   width="0.79000002"
   height="2.8699999"
   id="rect98"
   style="fill:#f4ea0c" />
			<path
   class="st0"
   d="m 7.99,2.05 h 0.94 c 0.53,0 0.73,0.08 0.89,0.21 0.23,0.19 0.34,0.47 0.34,0.76 0,0.29 -0.12,0.6 -0.3,0.75 C 9.66,3.94 9.47,4.02 9.02,4.02 H 8.69 v 0.9 h -0.7 z m 0.7,1.33 h 0.3 c 0.14,0 0.46,0 0.46,-0.35 C 9.45,2.69 9.12,2.69 8.96,2.69 H 8.69 Z"
   id="path100"
   inkscape:connector-curvature="0"
   style="fill:#010101" />
			<path
   class="st0"
   d="m 10.15,2.05 h 0.95 c 0.32,0 0.9,0 1.27,0.54 0.2,0.27 0.26,0.58 0.26,0.89 0,0.78 -0.39,1.44 -1.48,1.44 H 10.14 V 2.05 Z m 0.74,2.23 h 0.31 c 0.55,0 0.7,-0.38 0.7,-0.79 C 11.9,3.33 11.87,3.12 11.76,2.96 11.67,2.83 11.53,2.7 11.2,2.7 h -0.32 v 1.58 z"
   id="path102"
   inkscape:connector-curvature="0"
   style="fill:#010101" />
			<path
   class="st0"
   d="M 15.78,4.97 C 15.73,4.97 15.67,4.98 15.6,4.98 15.2,4.98 15,4.84 14.92,4.75 14.59,4.96 14.3,4.98 14.11,4.98 13.18,4.98 12.59,4.23 12.59,3.5 12.6,2.75 13.18,2 14.11,2 c 0.93,0 1.53,0.73 1.53,1.47 0,0.48 -0.16,0.72 -0.24,0.83 0.08,0.07 0.21,0.1 0.31,0.1 0.02,0 0.03,0 0.06,0 V 4.97 Z M 14.91,3.46 c 0,-0.51 -0.37,-0.82 -0.8,-0.82 -0.39,0 -0.7,0.27 -0.78,0.73 0.12,-0.05 0.24,-0.1 0.41,-0.1 0.31,0 0.7,0.16 1.07,0.61 0.06,-0.1 0.09,-0.23 0.1,-0.42 z m -1.24,0.35 c -0.11,0 -0.18,0.02 -0.26,0.05 0.14,0.34 0.46,0.49 0.7,0.49 0.12,0 0.24,-0.02 0.33,-0.07 C 14.32,4.12 14.08,3.81 13.67,3.81 Z"
   id="path104"
   inkscape:connector-curvature="0"
   style="fill:#010101" />
		</g>
	</g>
</g>
</svg>