<?xml version="1.0" encoding="utf-8"?>
<!-- Generator: Adobe Illustrator 23.0.2, SVG Export Plug-In . SVG Version: 6.00 Build 0)  -->
<svg height="200" width="200" version="1.1" id="Layer_1" xmlns="http://www.w3.org/2000/svg" xmlns:xlink="http://www.w3.org/1999/xlink" x="0px" y="0px"
	 viewBox="0 0 512 512" style="enable-background:new 0 0 512 512;" xml:space="preserve">
<style type="text/css">
	.st0{fill:#231F20;}
	.st1{fill:#F5A81C;}
	.st2{fill:#F6EC1B;}
	.st3{fill:#A3CD3A;}
	.st4{fill:#B0DCC4;}
	.st5{fill:#0094CC;}
</style>
<g>
	<path class="st0" d="M24.36,169.8h56.3c31.87,0,43.74,4.89,53.05,12.56c13.49,11.17,20.24,28.15,20.24,45.6
		s-7.21,35.83-18.15,45.13c-11.87,10-23.5,14.89-50.25,14.89H66.47v53.98H24.36V169.8z M66.47,249.37h17.91
		c8.38,0,27.45,0,27.45-20.71c0-20.24-19.54-20.24-29.08-20.24H66.47V249.37z"/>
	<path class="st0" d="M153.89,169.8h57c19.31,0,53.74,0,76.08,32.11c11.87,16.29,15.82,34.67,15.82,53.51
		c0,47-23.27,86.55-88.64,86.55h-60.26V169.8z M197.86,303.35h18.84c32.8,0,42.11-22.8,42.11-47.23c0-9.77-2.09-22.1-8.38-31.87
		c-5.12-7.68-13.96-15.82-33.5-15.82h-19.08V303.35z"/>
	<path class="st0" d="M491.23,344.99c-3.26,0.23-6.75,0.47-10.93,0.47c-23.73,0-35.83-8.61-40.48-13.49
		c-20.01,12.33-36.99,13.49-48.39,13.49c-55.6,0-90.97-44.9-90.97-88.64c0-45.13,34.9-90.27,90.5-90.27s91.9,43.97,91.9,87.94
		c0,28.62-9.77,43.04-14.19,49.79c4.65,4.42,12.33,6.05,18.84,6.05c1.16,0,2.09,0,3.72-0.23V344.99z M438.89,254.49
		c0-30.48-22.1-49.32-47.69-49.32c-23.5,0-41.88,16.05-46.53,43.51c7.44-3.02,14.19-5.82,24.43-5.82c18.61,0,42.11,9.54,63.98,36.29
		C436.33,273.33,438.42,265.66,438.89,254.49z M364.44,274.96c-6.75,0-10.7,1.16-15.36,2.79c8.61,20.47,27.69,29.31,41.88,29.08
		c7.21,0.23,14.19-1.4,20.01-4.42C403.75,293.81,389.33,274.96,364.44,274.96z"/>
</g>
<g>
	<rect y="482.96" class="st1" width="128.27" height="29.04"/>
</g>
<g>
	<rect x="128.27" y="482.96" class="st2" width="60.86" height="29.04"/>
</g>
<g>
	<rect x="188.97" y="482.96" class="st3" width="128.27" height="29.04"/>
</g>
<g>
	<rect x="317.24" y="482.96" class="st4" width="60.86" height="29.04"/>
</g>
<g>
	<rect x="378.1" y="482.96" class="st5" width="133.9" height="29.04"/>
</g>
</svg>
